<svg xmlns="http://www.w3.org/2000/svg" viewBox="0 0 200 200" fill="none">
  <rect x="45" y="30" width="110" height="150" rx="4" stroke="#C0C4CC" stroke-width="2" fill="#F5F6F8"/>
  <rect x="30" y="60" width="50" height="120" rx="3" stroke="#C0C4CC" stroke-width="2" fill="#ECEDF0"/>
  <rect x="120" y="60" width="50" height="120" rx="3" stroke="#C0C4CC" stroke-width="2" fill="#ECEDF0"/>
  <rect x="65" y="50" width="15" height="12" rx="2" fill="#D0D3DA"/><rect x="90" y="50" width="15" height="12" rx="2" fill="#D0D3DA"/>
  <rect x="65" y="75" width="15" height="12" rx="2" fill="#D0D3DA"/><rect x="90" y="75" width="15" height="12" rx="2" fill="#D0D3DA"/>
  <rect x="65" y="100" width="15" height="12" rx="2" fill="#D0D3DA"/><rect x="90" y="100" width="15" height="12" rx="2" fill="#D0D3DA"/>
  <rect x="40" y="80" width="12" height="10" rx="2" fill="#D0D3DA"/><rect x="40" y="105" width="12" height="10" rx="2" fill="#D0D3DA"/>
  <rect x="130" y="80" width="12" height="10" rx="2" fill="#D0D3DA"/><rect x="130" y="105" width="12" height="10" rx="2" fill="#D0D3DA"/>
  <path d="M80 180 V145 a10 10 0 0 1 10-10h20a10 10 0 0 1 10 10V180" stroke="#C0C4CC" stroke-width="2" fill="#ECEDF0"/>
  <circle cx="85" cy="160" r="2" fill="#C0C4CC"/>
  <ellipse cx="25" cy="180" rx="20" ry="12" fill="#E8E9EC"/><ellipse cx="175" cy="180" rx="20" ry="12" fill="#E8E9EC"/>
  <line x1="10" y1="180" x2="190" y2="180" stroke="#D0D3DA" stroke-width="1.5"/>
</svg>
