<svg xmlns="http://www.w3.org/2000/svg" viewBox="0 0 200 200" fill="none">
  <path d="M100 30 L170 80 V175 H30 V80 Z" fill="#F5F6F8" stroke="#C0C4CC" stroke-width="2"/>
  <rect x="55" y="60" width="15" height="25" rx="1" fill="white" stroke="#C0C4CC" stroke-width="1.5"/>
  <rect x="130" y="60" width="15" height="25" rx="1" fill="white" stroke="#C0C4CC" stroke-width="1.5"/>
  <path d="M85 175 V130 a15 15 0 0 1 15-15 15 15 0 0 1 15 15V175" fill="#ECEDF0" stroke="#C0C4CC" stroke-width="2"/>
  <circle cx="92" cy="150" r="2.5" fill="#C0C4CC"/>
  <rect x="60" y="15" width="15" height="25" rx="2" fill="#E8E9EC" stroke="#C0C4CC" stroke-width="1.5"/>
  <rect x="125" y="15" width="15" height="25" rx="2" fill="#E8E9EC" stroke="#C0C4CC" stroke-width="1.5"/>
  <ellipse cx="20" cy="175" rx="25" ry="15" fill="#E8E9EC"/>
  <ellipse cx="180" cy="175" rx="25" ry="15" fill="#E8E9EC"/>
  <ellipse cx="170" cy="168" rx="12" ry="30" fill="#E8E9EC" stroke="#D0D3DA" stroke-width="1"/>
  <line x1="5" y1="175" x2="195" y2="175" stroke="#D0D3DA" stroke-width="1.5"/>
</svg>
